<svg width="32" height="24" viewBox="0 0 32 24" fill="none" xmlns="http://www.w3.org/2000/svg">
<path d="M16.0005 16.333C18.0255 16.333 19.6671 17.9747 19.6671 19.9997C19.6671 22.0248 18.0255 23.6664 16.0005 23.6664C13.9754 23.6664 12.3338 22.0248 12.3338 19.9997C12.3338 17.9747 13.9754 16.333 16.0005 16.333ZM16.0005 18.333C15.08 18.333 14.3338 19.0792 14.3338 19.9997C14.3338 20.9202 15.08 21.6664 16.0005 21.6664C16.9209 21.6664 17.6671 20.9202 17.6671 19.9997C17.6671 19.0792 16.9209 18.333 16.0005 18.333ZM16.0006 10.9998C19.5174 10.9998 22.5631 13.0169 24.0438 15.9573L22.5295 17.47C21.5153 14.8544 18.9745 12.9998 16.0006 12.9998C13.0266 12.9998 10.4858 14.8544 9.47164 17.47L7.95782 15.9563C9.43874 13.0165 12.4841 10.9998 16.0006 10.9998V10.9998ZM16.0007 5.66661C20.9811 5.66661 25.3683 8.20682 27.9372 12.0623L26.4901 13.5097C24.3155 10.0024 20.4308 7.66661 16.0007 7.66661C11.5705 7.66661 7.68583 10.0024 5.51116 13.5097L4.06406 12.0623C6.63301 8.20682 11.0202 5.66661 16.0007 5.66661V5.66661ZM16.0005 0.333008C22.4515 0.333008 28.1771 3.43905 31.7634 8.23722L30.3329 9.6682C27.1242 5.22478 21.9 2.33301 16.0005 2.33301C10.1013 2.33301 4.87747 5.22435 1.66876 9.6672L0.238281 8.23622C3.82458 3.43861 9.54984 0.333008 16.0005 0.333008V0.333008Z" fill="#B8B8B8"/>
</svg>
